<svg width="24" height="18" viewBox="0 0 24 18" fill="none" xmlns="http://www.w3.org/2000/svg">
<path d="M16.55 11.34C16.7287 11.5814 16.8371 11.8677 16.8629 12.167C16.8888 12.4663 16.8312 12.7669 16.6965 13.0354C16.5618 13.304 16.3553 13.5299 16.1 13.6881C15.8446 13.8464 15.5504 13.9308 15.25 13.9319H14.4375V16.3125C14.4375 16.7435 14.2663 17.1568 13.9615 17.4615C13.6568 17.7663 13.2435 17.9375 12.8125 17.9375H11.1875C10.7565 17.9375 10.3432 17.7663 10.0385 17.4615C9.73371 17.1568 9.5625 16.7435 9.5625 16.3125V13.9319H8.75C8.44959 13.9308 8.15538 13.8464 7.90003 13.6881C7.64468 13.5299 7.4382 13.304 7.30351 13.0354C7.16883 12.7669 7.11122 12.4663 7.13708 12.167C7.16294 11.8677 7.27125 11.5814 7.45 11.34L10.7 7.06625C10.8586 6.87533 11.0573 6.72168 11.282 6.61623C11.5067 6.51078 11.7518 6.45611 12 6.45611C12.2482 6.45611 12.4933 6.51078 12.718 6.61623C12.9427 6.72168 13.1414 6.87533 13.3 7.06625L16.55 11.34ZM20.9375 0.0625H3.0625C2.41603 0.0625 1.79605 0.319307 1.33893 0.776427C0.881807 1.23355 0.625 1.85353 0.625 2.5V9.8125C0.625 10.459 0.881807 11.079 1.33893 11.5361C1.79605 11.9932 2.41603 12.25 3.0625 12.25H5.5C5.51772 11.566 5.74772 10.9044 6.15813 10.3569L9.40812 6.08313C9.71774 5.69237 10.1117 5.37668 10.5605 5.15967C11.0094 4.94265 11.5015 4.82993 12 4.82993C12.4985 4.82993 12.9906 4.94265 13.4395 5.15967C13.8883 5.37668 14.2823 5.69237 14.5919 6.08313L17.8419 10.3569C18.2613 10.8995 18.4924 11.5642 18.5 12.25H20.9375C21.584 12.25 22.204 11.9932 22.6611 11.5361C23.1182 11.079 23.375 10.459 23.375 9.8125V2.5C23.375 1.85353 23.1182 1.23355 22.6611 0.776427C22.204 0.319307 21.584 0.0625 20.9375 0.0625Z" fill="black"/>
</svg>
