<svg width="20" height="21" viewBox="0 0 20 21" fill="none" xmlns="http://www.w3.org/2000/svg">
<path d="M18.5417 7.60417H1.45833C0.654167 7.60417 0 8.25833 0 9.0625V11.1458C0 11.95 0.654167 12.6042 1.45833 12.6042H18.5417C19.3458 12.6042 20 11.95 20 11.1458V9.0625C20 8.25833 19.3458 7.60417 18.5417 7.60417ZM18.5417 0.9375H1.45833C0.654167 0.9375 0 1.59167 0 2.39583V4.47917C0 5.28333 0.654167 5.9375 1.45833 5.9375H18.5417C19.3458 5.9375 20 5.28333 20 4.47917V2.39583C20 1.59167 19.3458 0.9375 18.5417 0.9375ZM19.375 14.2708H0.625C0.45924 14.2708 0.300269 14.3367 0.183058 14.4539C0.065848 14.5711 0 14.7301 0 14.8958C0 15.0616 0.065848 15.2206 0.183058 15.3378C0.300269 15.455 0.45924 15.5208 0.625 15.5208H19.375C19.5408 15.5208 19.6997 15.455 19.8169 15.3378C19.9342 15.2206 20 15.0616 20 14.8958C20 14.7301 19.9342 14.5711 19.8169 14.4539C19.6997 14.3367 19.5408 14.2708 19.375 14.2708ZM19.375 16.7708H0.625C0.45924 16.7708 0.300269 16.8367 0.183058 16.9539C0.065848 17.0711 0 17.2301 0 17.3958C0 17.5616 0.065848 17.7206 0.183058 17.8378C0.300269 17.955 0.45924 18.0208 0.625 18.0208H19.375C19.5408 18.0208 19.6997 17.955 19.8169 17.8378C19.9342 17.7206 20 17.5616 20 17.3958C20 17.2301 19.9342 17.0711 19.8169 16.9539C19.6997 16.8367 19.5408 16.7708 19.375 16.7708ZM19.375 19.2708H0.625C0.45924 19.2708 0.300269 19.3367 0.183058 19.4539C0.065848 19.5711 0 19.7301 0 19.8958C0 20.0616 0.065848 20.2206 0.183058 20.3378C0.300269 20.455 0.45924 20.5208 0.625 20.5208H19.375C19.5408 20.5208 19.6997 20.455 19.8169 20.3378C19.9342 20.2206 20 20.0616 20 19.8958C20 19.7301 19.9342 19.5711 19.8169 19.4539C19.6997 19.3367 19.5408 19.2708 19.375 19.2708Z" fill="black"/>
</svg>
