<svg width="20" height="20" viewBox="0 0 20 20" fill="none" xmlns="http://www.w3.org/2000/svg">
<path d="M6.77093 9.91395L6.05664 8.65681L13.9138 4.37109L14.6281 5.62824L6.77093 9.91395ZM13.9138 14.3639L6.77093 10.7925L6.12807 12.0639L13.2709 15.6354L13.9138 14.3639Z" fill="black"/>
<path d="M12.8571 3.57143C12.8571 2.86507 13.0666 2.17457 13.459 1.58725C13.8515 0.999932 14.4092 0.542173 15.0618 0.27186C15.7144 0.00154744 16.4325 -0.0691787 17.1253 0.0686256C17.8181 0.20643 18.4545 0.546575 18.9539 1.04605C19.4534 1.54552 19.7936 2.18189 19.9314 2.87468C20.0692 3.56747 19.9984 4.28556 19.7281 4.93815C19.4578 5.59075 19.0001 6.14853 18.4127 6.54096C17.8254 6.93339 17.1349 7.14286 16.4286 7.14286C15.4814 7.14286 14.573 6.76658 13.9032 6.09681C13.2334 5.42704 12.8571 4.51863 12.8571 3.57143ZM16.4286 12.8571C15.7222 12.8571 15.0317 13.0666 14.4444 13.459C13.8571 13.8515 13.3993 14.4092 13.129 15.0618C12.8587 15.7144 12.788 16.4325 12.9258 17.1253C13.0636 17.8181 13.4037 18.4545 13.9032 18.9539C14.4027 19.4534 15.039 19.7936 15.7318 19.9314C16.4246 20.0692 17.1427 19.9984 17.7953 19.7281C18.4479 19.4578 19.0057 19.0001 19.3981 18.4127C19.7905 17.8254 20 17.1349 20 16.4286C20 15.4814 19.6237 14.573 18.9539 13.9032C18.2842 13.2334 17.3758 12.8571 16.4286 12.8571ZM3.57143 6.42857C2.86507 6.42857 2.17457 6.63803 1.58725 7.03046C0.999932 7.4229 0.542173 7.98068 0.27186 8.63327C0.00154744 9.28586 -0.0691787 10.004 0.0686256 10.6967C0.20643 11.3895 0.546575 12.0259 1.04605 12.5254C1.54552 13.0249 2.18189 13.365 2.87468 13.5028C3.56747 13.6406 4.28556 13.5699 4.93815 13.2996C5.59075 13.0293 6.14853 12.5715 6.54096 11.9842C6.93339 11.3969 7.14286 10.7064 7.14286 10C7.14286 9.53099 7.05048 9.06658 6.871 8.63327C6.69152 8.19997 6.42845 7.80625 6.09681 7.47462C5.76517 7.14298 5.37146 6.87991 4.93815 6.70043C4.50485 6.52095 4.04044 6.42857 3.57143 6.42857Z" fill="black"/>
</svg>
