<svg width="20" height="20" viewBox="0 0 20 20" fill="none" xmlns="http://www.w3.org/2000/svg">
<path d="M15.4597 0H4.54035C2.03509 0 0 2.03509 0 4.54035C0 7.04561 2.03509 9.0807 4.54035 9.0807H15.4597C17.9649 9.0807 20 7.04561 20 4.54035C20 2.03509 17.9649 0 15.4597 0ZM15.4597 7.52281C13.8105 7.52281 12.4772 6.18947 12.4772 4.54035C12.4772 2.89825 13.8105 1.55789 15.4597 1.55789C16.2501 1.55975 17.0076 1.87457 17.5665 2.43348C18.1254 2.9924 18.4403 3.74992 18.4421 4.54035C18.4421 6.18947 17.1018 7.52281 15.4597 7.52281Z" fill="#BEBEBE"/>
<path d="M15.4597 10.9189H4.54035C2.03509 10.9189 0 12.954 0 15.4593C0 17.9646 2.03509 19.9996 4.54035 19.9996H15.4597C17.9649 19.9996 20 17.9646 20 15.4593C20 12.954 17.9649 10.9189 15.4597 10.9189ZM4.54035 18.4418C3.74992 18.4399 2.9924 18.1251 2.43348 17.5662C1.87457 17.0072 1.55975 16.2497 1.55789 15.4593C1.55789 13.8102 2.89825 12.4768 4.54035 12.4768C6.18947 12.4768 7.52281 13.8102 7.52281 15.4593C7.52281 17.1014 6.18947 18.4418 4.54035 18.4418Z" fill="#111111"/>
</svg>
