<svg width="18" height="22" viewBox="0 0 18 22" fill="none" xmlns="http://www.w3.org/2000/svg">
<path fill-rule="evenodd" clip-rule="evenodd" d="M18 2.69265C18 2.14181 17.7812 1.61354 17.3917 1.22404C17.0022 0.834541 16.4739 0.615723 15.9231 0.615723H2.07692C1.52609 0.615723 0.997815 0.834541 0.608317 1.22404C0.218818 1.61354 0 2.14181 0 2.69265V8.23111C0 8.78194 0.218818 9.31021 0.608317 9.69971C0.997815 10.0892 1.52609 10.308 2.07692 10.308H15.9231C16.4739 10.308 17.0022 10.0892 17.3917 9.69971C17.7812 9.31021 18 8.78194 18 8.23111V2.69265ZM16.6154 4.42341H1.38462V8.23111C1.38462 8.41472 1.45755 8.59081 1.58739 8.72064C1.71722 8.85048 1.89331 8.92341 2.07692 8.92341H15.9231C16.1067 8.92341 16.2828 8.85048 16.4126 8.72064C16.5424 8.59081 16.6154 8.41472 16.6154 8.23111V4.42341ZM18 13.7696C18 13.2187 17.7812 12.6905 17.3917 12.301C17.0022 11.9115 16.4739 11.6926 15.9231 11.6926H2.07692C1.52609 11.6926 0.997815 11.9115 0.608317 12.301C0.218818 12.6905 0 13.2187 0 13.7696V19.308C0 19.8589 0.218818 20.3871 0.608317 20.7766C0.997815 21.1661 1.52609 21.385 2.07692 21.385H15.9231C16.4739 21.385 17.0022 21.1661 17.3917 20.7766C17.7812 20.3871 18 19.8589 18 19.308V13.7696ZM1.38462 15.5003H16.6154V19.308C16.6154 19.4916 16.5424 19.6677 16.4126 19.7976C16.2828 19.9274 16.1067 20.0003 15.9231 20.0003H2.07692C1.89331 20.0003 1.71722 19.9274 1.58739 19.7976C1.45755 19.6677 1.38462 19.4916 1.38462 19.308V15.5003Z" fill="black"/>
</svg>
