<svg width="26" height="26" viewBox="0 0 26 26" fill="none" xmlns="http://www.w3.org/2000/svg">
<path d="M16.8572 4.77169V6.82884C16.8572 7.25056 16.5075 7.60027 16.0857 7.60027H9.9143C9.49258 7.60027 9.14287 7.25056 9.14287 6.82884V4.77169C9.14287 4.34998 9.49258 4.00026 9.9143 4.00026H10.2743C10.6137 2.8174 11.704 1.94312 13 1.94312C14.296 1.94312 15.3863 2.8174 15.7257 4.00026H16.0857C16.5075 4.00026 16.8572 4.34998 16.8572 4.77169ZM22 6.82884V21.2289C22 22.7923 20.7349 24.0575 19.1715 24.0575H6.82858C5.26515 24.0575 4 22.7923 4 21.2289V6.82884C4 5.26541 5.26515 4.00026 6.82858 4.00026H7.19886C7.12686 4.24712 7.08572 4.50426 7.08572 4.77169V6.82884C7.08572 8.39227 8.35087 9.65742 9.9143 9.65742H16.0857C17.6492 9.65742 18.9143 8.39227 18.9143 6.82884V4.77169C18.9143 4.50426 18.8732 4.24712 18.8012 4.00026H19.1715C20.7349 4.00026 22 5.26541 22 6.82884ZM17.8857 18.1432C17.8857 17.7214 17.536 17.3717 17.1143 17.3717H8.88573C8.46401 17.3717 8.1143 17.7214 8.1143 18.1432C8.1143 18.5649 8.46401 18.9146 8.88573 18.9146H17.1143C17.536 18.9146 17.8857 18.5649 17.8857 18.1432ZM17.8857 14.0289C17.8857 13.6071 17.536 13.2574 17.1143 13.2574H8.88573C8.46401 13.2574 8.1143 13.6071 8.1143 14.0289C8.1143 14.4506 8.46401 14.8003 8.88573 14.8003H17.1143C17.536 14.8003 17.8857 14.4506 17.8857 14.0289Z" fill="black"/>
</svg>
