<svg width="16" height="22" viewBox="0 0 16 22" fill="none" xmlns="http://www.w3.org/2000/svg">
<path d="M1.9173 11.2117H0.35818C0.310064 11.2115 0.262385 11.2208 0.217893 11.2392C0.173402 11.2575 0.132979 11.2844 0.0989548 11.3185C0.0649308 11.3525 0.0379795 11.3929 0.0196553 11.4374C0.0013312 11.4819 -0.00800318 11.5296 -0.00780955 11.5777V20.8812C-0.00795451 20.9293 0.00141309 20.9769 0.0197545 21.0214C0.0380958 21.0659 0.0650491 21.1063 0.0990633 21.1403C0.133078 21.1743 0.173481 21.2012 0.217951 21.2196C0.26242 21.2379 0.310077 21.2473 0.35818 21.2471H1.9173C2.30521 21.246 2.6769 21.0914 2.95119 20.8171C3.22549 20.5428 3.3801 20.1711 3.38126 19.7832V12.6757C3.38077 12.2875 3.22638 11.9155 2.95194 11.641C2.6775 11.3666 2.30542 11.2122 1.9173 11.2117ZM14.1593 11.7277H10.3201V6.89668C10.3201 6.37331 10.0529 5.6234 8.77924 5.0305C8.62323 4.9589 8.45111 4.92966 8.28021 4.94572C8.10931 4.96178 7.94565 5.02258 7.80571 5.12199C7.66831 5.22092 7.5601 5.35504 7.49248 5.51026C7.42485 5.66547 7.4003 5.83604 7.42142 6.00403C7.5578 7.38792 7.3386 8.78372 6.7846 10.0592C6.54169 10.6486 6.17819 11.1807 5.71744 11.6213C5.2567 12.0618 4.70889 12.4012 4.10921 12.6175C4.11225 12.6368 4.11348 12.6564 4.11287 12.676V19.8161C4.66076 20.3102 5.28916 20.7582 6.06726 20.7311H11.8645C12.7334 20.7275 13.5721 20.4122 14.2282 19.8427C14.8844 19.2732 15.3144 18.4872 15.4403 17.6275L15.9819 13.8322C16.0179 13.5711 15.9978 13.3054 15.9228 13.0527C15.8479 12.8 15.7199 12.5663 15.5473 12.3671C15.3748 12.1679 15.1617 12.0078 14.9224 11.8975C14.683 11.7873 14.4228 11.7294 14.1593 11.7277ZM8.82243 3.13577C8.9195 3.13577 9.01259 3.09721 9.08123 3.02857C9.14986 2.95993 9.18842 2.86684 9.18842 2.76978V1.1177C9.18842 1.02063 9.14986 0.927541 9.08123 0.858905C9.01259 0.790269 8.9195 0.751709 8.82243 0.751709C8.72536 0.751709 8.63227 0.790269 8.56364 0.858905C8.495 0.927541 8.45644 1.02063 8.45644 1.1177V2.76978C8.45644 2.86684 8.495 2.95993 8.56364 3.02857C8.63227 3.09721 8.72536 3.13577 8.82243 3.13577ZM6.22756 3.99584C6.26113 4.03159 6.30155 4.06023 6.3464 4.08006C6.39126 4.09988 6.43964 4.11049 6.48867 4.11125C6.53771 4.11201 6.5864 4.10291 6.63184 4.08449C6.67729 4.06607 6.71858 4.0387 6.75324 4.00401C6.78791 3.96932 6.81525 3.92802 6.83364 3.88255C6.85203 3.83709 6.86109 3.7884 6.8603 3.73936C6.8595 3.69033 6.84886 3.64195 6.829 3.59711C6.80914 3.55227 6.78048 3.51188 6.74471 3.47833L5.57683 2.31083C5.54307 2.27587 5.50268 2.24799 5.45803 2.22881C5.41338 2.20963 5.36536 2.19953 5.31676 2.19911C5.26816 2.19869 5.21997 2.20795 5.17499 2.22635C5.13001 2.24475 5.08915 2.27193 5.05478 2.30629C5.02042 2.34065 4.99325 2.38152 4.97484 2.4265C4.95644 2.47147 4.94718 2.51967 4.9476 2.56826C4.94803 2.61686 4.95812 2.66489 4.9773 2.70954C4.99648 2.75419 5.02437 2.79457 5.05932 2.82834L6.22756 3.99584ZM11.1582 4.10308C11.2062 4.10313 11.2538 4.09368 11.2983 4.07528C11.3427 4.05687 11.383 4.02988 11.4169 3.99584L12.5848 2.82797C12.6515 2.75894 12.6884 2.66649 12.6875 2.57053C12.6867 2.47457 12.6482 2.38278 12.5803 2.31492C12.5125 2.24706 12.4207 2.20857 12.3247 2.20774C12.2288 2.2069 12.1363 2.24379 12.0673 2.31046L10.8994 3.47833C10.8495 3.52998 10.8157 3.59509 10.8023 3.66567C10.7888 3.73626 10.7963 3.80923 10.8238 3.87561C10.8513 3.94199 10.8976 3.99888 10.957 4.0393C11.0164 4.07971 11.0863 4.10188 11.1582 4.10308Z" fill="black"/>
</svg>
