<svg width="26" height="26" viewBox="0 0 26 26" fill="none" xmlns="http://www.w3.org/2000/svg">
<path d="M21.4844 17.2033L20.6412 18.3279L21.766 19.1719H19.2283C18.9139 17.9621 17.8226 17.0625 16.5156 17.0625H9.48438C8.17736 17.0625 7.08606 17.9621 6.77167 19.1719H5.21875C3.66766 19.1719 2.40625 17.9105 2.40625 16.3594C2.40625 14.8083 3.66766 13.5469 5.21875 13.5469H6.77167C7.08606 14.7567 8.17736 15.6562 9.48438 15.6562H16.5156C17.8226 15.6562 18.9139 14.7567 19.2283 13.5469H20.7812C23.1076 13.5469 25 11.6545 25 9.32812C25 7.00177 23.1076 5.10938 20.7812 5.10938H19.2283C18.9139 3.89958 17.8226 3 16.5156 3H9.48438C8.17736 3 7.08606 3.89958 6.77167 5.10938H6.15625L3.53087 3.14081L2.68788 4.26544L3.81269 5.10938H1V6.51562H3.81269L2.68788 7.35956L3.53087 8.48419L6.15625 6.51562H6.77167C7.08606 7.72542 8.17736 8.625 9.48438 8.625H16.5156C17.8226 8.625 18.9139 7.72542 19.2283 6.51562H20.7812C22.3323 6.51562 23.5938 7.77703 23.5938 9.32812C23.5938 10.8792 22.3323 12.1406 20.7812 12.1406H19.2283C18.9139 10.9308 17.8226 10.0312 16.5156 10.0312H9.48438C8.17736 10.0312 7.08606 10.9308 6.77167 12.1406H5.21875C2.89239 12.1406 1 14.033 1 16.3594C1 18.6857 2.89239 20.5781 5.21875 20.5781H6.77167C7.08606 21.7879 8.17736 22.6875 9.48438 22.6875H16.5156C17.8226 22.6875 18.9139 21.7879 19.2283 20.5781H21.766L20.6412 21.4221L21.4844 22.5467L25 19.875L21.4844 17.2033Z" fill="black"/>
</svg>
