<svg width="20" height="20" viewBox="0 0 20 20" fill="none" xmlns="http://www.w3.org/2000/svg">
<path d="M19.9016 10.2611L17.7354 7.07045L19.9016 3.87984C19.9515 3.8049 19.9835 3.71947 19.9951 3.63017C20.0067 3.54087 19.9976 3.4501 19.9685 3.36489C19.909 3.19207 19.7728 3.05645 19.5994 2.99926L12.5292 0.655527C12.2762 0.570254 12.0027 0.666386 11.8562 0.886111L9.99999 3.67043L8.14375 0.886111C7.99613 0.665253 7.72032 0.569668 7.47083 0.655527L0.400555 2.99926C0.227197 3.05649 0.090987 3.19211 0.0314952 3.36489C0.00238772 3.45011 -0.0067133 3.54089 0.00489696 3.63019C0.0165072 3.7195 0.0485172 3.80493 0.0984479 3.87988L2.26461 7.07049L0.098487 10.2611C0.0485535 10.336 0.0165419 10.4214 0.00493156 10.5107C-0.00667876 10.6 0.00242382 10.6908 0.0315343 10.7761C0.0910261 10.9489 0.227236 11.0845 0.400595 11.1417L7.47086 13.4854C7.71969 13.5691 7.99649 13.4757 8.14379 13.2548L10 10.4705L11.8563 13.2548C12.0037 13.4759 12.2806 13.569 12.5292 13.4854L19.5995 11.1417C19.7728 11.0844 19.909 10.9488 19.9685 10.7761C19.9976 10.6908 20.0067 10.6 19.9951 10.5107C19.9835 10.4214 19.9515 10.336 19.9016 10.2611ZM10 8.7968L4.82104 7.07049L10 5.34417L15.179 7.07049L10 8.7968Z" fill="black"/>
<path d="M12.8999 14.5971C12.1624 14.8445 11.3285 14.5762 10.8811 13.9047L9.99999 12.583L9.11875 13.9047C8.67223 14.5749 7.83938 14.8457 7.09716 14.5959L2.38281 13.0246V16.4453C2.38281 16.6976 2.54418 16.9214 2.78336 17.0009L9.81113 19.3435C9.8323 19.3509 9.85347 19.3567 9.87464 19.3612C9.87464 19.3612 9.87523 19.3612 9.87523 19.3618H9.87581C9.91702 19.3704 9.95878 19.375 9.99999 19.375C10.064 19.3748 10.1275 19.3644 10.1882 19.3441L17.2166 17.0009C17.3332 16.9621 17.4347 16.8875 17.5066 16.7878C17.5785 16.6881 17.6171 16.5682 17.6171 16.4453V13.0247L12.8999 14.5971Z" fill="black"/>
</svg>
