<svg width="26" height="26" viewBox="0 0 26 26" fill="none" xmlns="http://www.w3.org/2000/svg">
<path d="M23 10.45H3V19.6667C3 21.5083 4.49167 23 6.325 23H19.6667C21.5 23 23 21.5083 23 19.6667V10.45ZM13.0333 18.9H7.875C7.40833 18.9 7.04167 18.5333 7.04167 18.0667C7.04167 17.6083 7.40833 17.2333 7.875 17.2333H13.0333C13.4917 17.2333 13.8667 17.6083 13.8667 18.0667C13.8667 18.5333 13.4917 18.9 13.0333 18.9ZM18.1917 14.5333H7.875C7.40833 14.5333 7.04167 14.1583 7.04167 13.7C7.04167 13.2417 7.40833 12.8667 7.875 12.8667H18.1917C18.65 12.8667 19.025 13.2417 19.025 13.7C19.025 14.1583 18.65 14.5333 18.1917 14.5333ZM23 6.33333C23 4.49167 21.5 3 19.6667 3H6.325C4.49167 3 3 4.49167 3 6.33333V8.78333H23V6.33333ZM7.35833 6.65833C6.91083 7.01583 6.46583 6.94083 6.18333 6.65833C6.10452 6.58127 6.04189 6.48923 5.99913 6.38763C5.95638 6.28602 5.93435 6.1769 5.93435 6.06667C5.93435 5.95643 5.95638 5.84731 5.99913 5.74571C6.04189 5.6441 6.10452 5.55207 6.18333 5.475C6.31947 5.33893 6.49875 5.25453 6.69036 5.23628C6.88197 5.21803 7.07396 5.26708 7.23333 5.375C7.55667 5.57 7.80333 6.16417 7.35833 6.65833ZM10.4917 6.65833C10.0558 7.00667 9.61667 6.95083 9.30833 6.65833C8.94667 6.25667 9.03583 5.7475 9.30833 5.475C9.61667 5.16667 10.1833 5.16667 10.4917 5.475C10.7708 5.75333 10.8583 6.25083 10.4917 6.65833ZM13.625 6.65833C13.35 6.93333 12.8933 7.02083 12.4417 6.65833C12.2869 6.50026 12.2003 6.28786 12.2003 6.06667C12.2003 5.84547 12.2869 5.63307 12.4417 5.475C12.8892 5.115 13.3392 5.18917 13.625 5.475C13.9375 5.7875 13.9558 6.30833 13.625 6.65833Z" fill="black"/>
</svg>
