<svg width="20" height="18" viewBox="0 0 20 18" fill="none" xmlns="http://www.w3.org/2000/svg">
<path d="M3.18273 2.2136H16.8855C17.1339 2.21507 17.3813 2.24635 17.6223 2.30679C17.3573 1.47178 16.5846 0.861328 15.6628 0.861328H4.33728C3.41001 0.861328 2.63319 1.47951 2.37319 2.32224C2.6371 2.25066 2.90929 2.21414 3.18273 2.2136ZM1.81819 4.4977H18.1819C18.4555 4.4977 18.7191 4.53906 18.9682 4.61452C18.9298 4.49815 18.8817 4.38519 18.8246 4.27679C18.6352 3.92769 18.3551 3.63622 18.0138 3.43316C17.6725 3.2301 17.2826 3.12299 16.8855 3.12315H3.18273C2.78456 3.12298 2.39377 3.23066 2.05188 3.43474C1.70998 3.63882 1.42974 3.93169 1.24091 4.28224C1.18776 4.38309 1.14262 4.48796 1.10591 4.59588C1.33794 4.53179 1.57747 4.49892 1.81819 4.49815V4.4977ZM18.1819 5.40679H1.81819C1.33597 5.40679 0.87351 5.59835 0.532534 5.93933C0.191558 6.2803 0 6.74276 0 7.22498V15.8614C0 16.3436 0.191558 16.806 0.532534 17.147C0.87351 17.488 1.33597 17.6795 1.81819 17.6795H18.1819C18.6641 17.6795 19.1265 17.488 19.4675 17.147C19.8085 16.806 20 16.3436 20 15.8614V7.22498C20 6.74276 19.8085 6.2803 19.4675 5.93933C19.1265 5.59835 18.6641 5.40679 18.1819 5.40679ZM13.1428 12.7241L9.05184 15.0859C8.8382 15.2091 8.60411 15.2709 8.37002 15.2709C8.13593 15.2709 7.90138 15.2095 7.6882 15.0859C7.47993 14.9673 7.307 14.7954 7.18717 14.5879C7.06734 14.3804 7.00494 14.1446 7.00638 13.905V9.18135C7.00638 8.68816 7.26138 8.2468 7.6882 8.00043C8.11502 7.75407 8.62502 7.75407 9.05184 8.00043L13.1428 10.3623C13.5696 10.6086 13.8246 11.0504 13.8246 11.5432C13.8246 12.0359 13.5696 12.4777 13.1428 12.7241Z" fill="black"/>
</svg>
