<svg width="21" height="22" viewBox="0 0 21 22" fill="none" xmlns="http://www.w3.org/2000/svg">
<path d="M10.4552 13.6304C10.4164 13.5913 10.3702 13.5602 10.3193 13.539C10.2684 13.5178 10.2139 13.5069 10.1588 13.5069C10.1036 13.5069 10.0491 13.5178 9.99821 13.539C9.94733 13.5602 9.90116 13.5913 9.86235 13.6304L3.18278 20.31C3.12508 20.3688 3.0861 20.4435 3.07074 20.5244C3.05538 20.6054 3.06434 20.6891 3.09649 20.765C3.12863 20.8409 3.18252 20.9056 3.25137 20.9509C3.32021 20.9962 3.40094 21.0202 3.48336 21.0197H16.8425C16.9242 21.0185 17.0038 20.9934 17.0714 20.9475C17.1389 20.9015 17.1916 20.8368 17.2227 20.7612C17.2538 20.6856 17.262 20.6026 17.2464 20.5224C17.2308 20.4422 17.1919 20.3683 17.1347 20.31L10.4552 13.6304ZM19.0384 13.1879C18.9502 13.1644 18.8567 13.1704 18.7723 13.2051C18.6878 13.2398 18.6171 13.3012 18.5708 13.3799C17.9434 14.3964 17.4917 15.5114 17.2349 16.678C17.2141 16.7674 17.1833 16.8542 17.1431 16.9368C17.1078 17.014 17.0969 17.1001 17.1119 17.1836C17.1268 17.2671 17.1668 17.3441 17.2266 17.4044L18.6293 18.8071C18.6872 18.8672 18.7618 18.9085 18.8434 18.9258C18.925 18.9431 19.01 18.9355 19.0872 18.904C19.1645 18.8726 19.2306 18.8187 19.277 18.7493C19.3233 18.68 19.3479 18.5983 19.3473 18.5148V13.5887C19.3468 13.4972 19.3163 13.4085 19.2605 13.3361C19.2047 13.2637 19.1267 13.2116 19.0384 13.1879ZM10.9311 9.18014C10.5467 8.39257 10.2983 7.54569 10.1963 6.6753C10.1714 6.44796 10.1602 6.21932 10.1629 5.99064C10.1593 5.03865 10.3917 4.1006 10.8392 3.26036C10.8721 3.19697 10.8881 3.12622 10.8858 3.05487C10.8835 2.98352 10.863 2.91395 10.8261 2.8528C10.7893 2.79166 10.7373 2.74099 10.6753 2.70563C10.6133 2.67028 10.5432 2.65142 10.4719 2.65085H2.64841C2.20553 2.65085 1.78078 2.82679 1.46762 3.13995C1.15445 3.45312 0.978516 3.87786 0.978516 4.32074L0.978516 18.5148C0.979663 18.5966 1.00477 18.6761 1.05071 18.7437C1.09666 18.8113 1.16143 18.8639 1.23699 18.895C1.31256 18.9261 1.39559 18.9344 1.4758 18.9187C1.55601 18.9031 1.62987 18.8643 1.68822 18.8071L10.8726 9.62266C10.9233 9.56199 10.9556 9.4882 10.966 9.40986C10.9763 9.33153 10.9642 9.25187 10.9311 9.18014ZM5.57072 9.7479C5.17383 9.7479 4.78261 9.65358 4.42932 9.47273C4.07602 9.29187 3.77076 9.02964 3.53869 8.70767C3.30662 8.38569 3.15439 8.01317 3.09453 7.62081C3.03468 7.22845 3.06891 6.82749 3.19442 6.45096C3.31993 6.07443 3.53312 5.73311 3.81642 5.45514C4.09972 5.17717 4.44502 4.9705 4.82386 4.85215C5.2027 4.73381 5.60425 4.70719 5.9954 4.77448C6.38655 4.84177 6.75611 5.00105 7.07363 5.23919C7.11749 5.27208 7.15444 5.31329 7.18237 5.36047C7.2103 5.40764 7.22867 5.45985 7.23642 5.51413C7.24417 5.5684 7.24116 5.62367 7.22756 5.67677C7.21395 5.72988 7.19002 5.77979 7.15712 5.82365C7.12423 5.86751 7.08302 5.90446 7.03584 5.93239C6.98867 5.96032 6.93646 5.97869 6.88218 5.98644C6.82791 5.9942 6.77264 5.99118 6.71953 5.97758C6.66643 5.96397 6.61652 5.94004 6.57266 5.90714C6.28581 5.69283 5.93767 5.57639 5.57961 5.57502C5.22154 5.57364 4.87252 5.68739 4.58403 5.89949C4.29554 6.11159 4.08287 6.4108 3.97739 6.75297C3.87191 7.09515 3.87921 7.46217 3.99821 7.79989C4.11721 8.1376 4.34162 8.42812 4.63831 8.62858C4.93501 8.82904 5.28828 8.92882 5.64601 8.9132C6.00373 8.89759 6.34697 8.7674 6.62506 8.54185C6.90316 8.3163 7.1014 8.00733 7.19052 7.66053H5.9882C5.87748 7.66053 5.77129 7.61655 5.693 7.53826C5.61471 7.45997 5.57072 7.35378 5.57072 7.24306C5.57072 7.13234 5.61471 7.02615 5.693 6.94786C5.77129 6.86957 5.87748 6.82559 5.9882 6.82559H7.65809C7.76881 6.82559 7.875 6.86957 7.95329 6.94786C8.03158 7.02615 8.07556 7.13234 8.07556 7.24306C8.07556 7.90738 7.81166 8.5445 7.34191 9.01425C6.87216 9.484 6.23505 9.7479 5.57072 9.7479ZM16.0076 0.980957C14.6789 0.980957 13.4047 1.50876 12.4652 2.44826C11.5257 3.38776 10.9979 4.66199 10.9979 5.99064C10.987 6.17974 10.987 6.3693 10.9979 6.5584C11.1732 8.33684 12.1251 9.80635 13.1353 11.3593C14.2735 12.9017 15.0989 14.6517 15.565 16.511C15.565 16.6217 15.609 16.7279 15.6873 16.8062C15.7656 16.8845 15.8718 16.9284 15.9825 16.9284C16.0932 16.9284 16.1994 16.8845 16.2777 16.8062C16.356 16.7279 16.4 16.6217 16.4 16.511C16.8661 14.6517 17.6915 12.9017 18.8297 11.3593C19.84 9.80635 20.7918 8.33684 20.9671 6.56675C21.0482 5.86635 20.9806 5.15672 20.7686 4.48427C20.5565 3.81181 20.205 3.19169 19.7368 2.66444C19.2687 2.1372 18.6945 1.71471 18.0519 1.42461C17.4093 1.13451 16.7126 0.98333 16.0076 0.980957ZM16.0076 3.4858C16.503 3.4858 16.9873 3.6327 17.3992 3.90794C17.8111 4.18318 18.1321 4.57438 18.3217 5.03208C18.5113 5.48978 18.5609 5.99342 18.4643 6.47931C18.3676 6.9652 18.1291 7.41152 17.7787 7.76183C17.4284 8.11214 16.9821 8.3507 16.4962 8.44735C16.0103 8.544 15.5067 8.4944 15.049 8.30481C14.5913 8.11522 14.2001 7.79417 13.9249 7.38225C13.6496 6.97034 13.5027 6.48605 13.5027 5.99064C13.5027 5.32631 13.7666 4.6892 14.2364 4.21945C14.7061 3.7497 15.3432 3.4858 16.0076 3.4858Z" fill="#111111"/>
</svg>
