<svg width="20" height="20" viewBox="0 0 20 20" fill="none" xmlns="http://www.w3.org/2000/svg">
<path d="M14.1901 -0.000244141H5.81002C2.17001 -0.000244141 0 2.16976 0 5.80978V14.1898C0 17.8298 2.17001 19.9998 5.81002 19.9998H14.1901C17.8301 19.9998 20.0001 17.8298 20.0001 14.1898V5.80978C20.0001 2.16976 17.8301 -0.000244141 14.1901 -0.000244141ZM7.97003 12.8998L5.72002 15.1498C5.57002 15.2998 5.38002 15.3698 5.19002 15.3698C5.00002 15.3698 4.80002 15.2998 4.66002 15.1498L3.91002 14.3998C3.61001 14.1098 3.61001 13.6298 3.91002 13.3398C4.20002 13.0498 4.67002 13.0498 4.97002 13.3398L5.19002 13.5598L6.91003 11.8398C7.20003 11.5498 7.67003 11.5498 7.97003 11.8398C8.26003 12.1298 8.26003 12.6098 7.97003 12.8998ZM7.97003 5.89978L5.72002 8.14979C5.57002 8.29979 5.38002 8.36979 5.19002 8.36979C5.00002 8.36979 4.80002 8.29979 4.66002 8.14979L3.91002 7.39979C3.61001 7.10978 3.61001 6.62978 3.91002 6.33978C4.20002 6.04978 4.67002 6.04978 4.97002 6.33978L5.19002 6.55978L6.91003 4.83978C7.20003 4.54977 7.67003 4.54977 7.97003 4.83978C8.26003 5.12978 8.26003 5.60978 7.97003 5.89978ZM15.5601 14.6198H10.31C9.90004 14.6198 9.56004 14.2798 9.56004 13.8698C9.56004 13.4598 9.90004 13.1198 10.31 13.1198H15.5601C15.759 13.1198 15.9497 13.1988 16.0904 13.3395C16.231 13.4801 16.3101 13.6709 16.3101 13.8698C16.3101 14.0687 16.231 14.2595 16.0904 14.4001C15.9497 14.5408 15.759 14.6198 15.5601 14.6198ZM15.5601 7.61979H10.31C9.90004 7.61979 9.56004 7.27979 9.56004 6.86978C9.56004 6.45978 9.90004 6.11978 10.31 6.11978H15.5601C15.759 6.11978 15.9497 6.1988 16.0904 6.33945C16.231 6.4801 16.3101 6.67087 16.3101 6.86978C16.3101 7.0687 16.231 7.25946 16.0904 7.40012C15.9497 7.54077 15.759 7.61979 15.5601 7.61979Z" fill="black"/>
</svg>
