<svg width="20" height="20" viewBox="0 0 20 20" fill="none" xmlns="http://www.w3.org/2000/svg">
<path d="M4 6C4 3.172 4 1.757 4.879 0.879C5.758 0.000999928 7.172 0 10 0C12.828 0 14.243 -5.96046e-08 15.121 0.879C15.999 1.758 16 3.172 16 6V14C16 16.828 16 18.243 15.121 19.121C14.242 19.999 12.828 20 10 20C7.172 20 5.757 20 4.879 19.121C4.001 18.242 4 16.828 4 14V6Z" fill="#111111"/>
<path d="M4.141 2.49927C4 3.34227 4 4.46127 4 5.99927V13.9993C4 15.5373 4 16.6563 4.141 17.4993H4C2.6 17.4993 1.9 17.4993 1.365 17.2263C0.894506 16.9868 0.511895 16.6045 0.272 16.1343C5.96046e-08 15.5993 0 14.8993 0 13.4993V6.49927C0 5.09927 5.96046e-08 4.39927 0.272 3.86427C0.511725 3.39362 0.894354 3.01099 1.365 2.77127C1.9 2.49927 2.6 2.49927 4 2.49927H4.141ZM15.859 2.49927C16 3.34227 16 4.46127 16 5.99927V13.9993C16 15.5373 16 16.6563 15.859 17.4993H16C17.4 17.4993 18.1 17.4993 18.635 17.2263C19.1051 16.9866 19.4874 16.6044 19.727 16.1343C20 15.5993 20 14.8993 20 13.4993V6.49927C20 5.09927 20 4.39927 19.727 3.86427C19.4875 3.39377 19.1053 3.01116 18.635 2.77127C18.1 2.49927 17.4 2.49927 16 2.49927H15.859Z" fill="#111111" fill-opacity="0.24"/>
</svg>
