<svg width="26" height="26" viewBox="0 0 26 26" fill="none" xmlns="http://www.w3.org/2000/svg">
<path d="M12.9987 10.3333C14.1953 10.3333 15.1654 9.36328 15.1654 8.16667C15.1654 6.97005 14.1953 6 12.9987 6C11.8021 6 10.832 6.97005 10.832 8.16667C10.832 9.36328 11.8021 10.3333 12.9987 10.3333Z" fill="black"/>
<path d="M4.33268 10.3333C5.5293 10.3333 6.49935 9.36328 6.49935 8.16667C6.49935 6.97005 5.5293 6 4.33268 6C3.13607 6 2.16602 6.97005 2.16602 8.16667C2.16602 9.36328 3.13607 10.3333 4.33268 10.3333Z" fill="black"/>
<path d="M21.6667 10.3333C22.8633 10.3333 23.8333 9.36328 23.8333 8.16667C23.8333 6.97005 22.8633 6 21.6667 6C20.47 6 19.5 6.97005 19.5 8.16667C19.5 9.36328 20.47 10.3333 21.6667 10.3333Z" fill="black"/>
<path d="M12.9987 20.3333C14.1953 20.3333 15.1654 19.3633 15.1654 18.1667C15.1654 16.97 14.1953 16 12.9987 16C11.8021 16 10.832 16.97 10.832 18.1667C10.832 19.3633 11.8021 20.3333 12.9987 20.3333Z" fill="black"/>
<path d="M4.33268 20.3333C5.5293 20.3333 6.49935 19.3633 6.49935 18.1667C6.49935 16.97 5.5293 16 4.33268 16C3.13607 16 2.16602 16.97 2.16602 18.1667C2.16602 19.3633 3.13607 20.3333 4.33268 20.3333Z" fill="black"/>
<path d="M21.6667 20.3333C22.8633 20.3333 23.8333 19.3633 23.8333 18.1667C23.8333 16.97 22.8633 16 21.6667 16C20.47 16 19.5 16.97 19.5 18.1667C19.5 19.3633 20.47 20.3333 21.6667 20.3333Z" fill="black"/>
</svg>
