<svg width="26" height="26" viewBox="0 0 26 26" fill="none" xmlns="http://www.w3.org/2000/svg">
<path d="M13.0009 13.7303C16.0907 13.7303 18.5955 11.2255 18.5955 8.13563C18.5955 5.04581 16.0907 2.54102 13.0009 2.54102C9.91105 2.54102 7.40625 5.04581 7.40625 8.13563C7.40625 11.2255 9.91105 13.7303 13.0009 13.7303Z" fill="black"/>
<path fill-rule="evenodd" clip-rule="evenodd" d="M22.0001 21.7574C22.0001 22.209 21.8207 22.642 21.5014 22.9614C21.182 23.2807 20.749 23.4601 20.2974 23.4601H5.70271C5.25112 23.4601 4.81803 23.2807 4.49871 22.9614C4.17939 22.642 4 22.209 4 21.7574C4 19.7575 4.79445 17.8395 6.20858 16.4254C7.62271 15.0112 9.54069 14.2168 11.5406 14.2168H14.4595C16.4594 14.2168 18.3774 15.0112 19.7915 16.4254C21.2056 17.8395 22.0001 19.7575 22.0001 21.7574ZM21.2908 22.4667C21.2781 22.4715 21.2703 22.4774 21.2703 22.4871L21.2908 22.4667Z" fill="black"/>
</svg>
