<svg width="20" height="20" viewBox="0 0 20 20" fill="none" xmlns="http://www.w3.org/2000/svg">
<path d="M19.1668 5.00002H0.833324C0.373322 5.00002 0 5.37334 0 5.83335V19.1667C0 19.6268 0.373322 20.0001 0.833324 20.0001H19.1667C19.6267 20.0001 20.0001 19.6268 20.0001 19.1668V5.83335C20.0001 5.37334 19.6268 5.00002 19.1668 5.00002ZM1.66669 4.1667H18.3334C18.7934 4.1667 19.1668 3.79338 19.1668 3.33337C19.1668 2.87337 18.7934 2.50001 18.3334 2.50001H1.66669C1.20669 2.50001 0.833363 2.87333 0.833363 3.33334C0.833363 3.79334 1.20669 4.1667 1.66669 4.1667ZM3.33334 1.66669H16.6667C17.1267 1.66669 17.5 1.29337 17.5 0.833363C17.5 0.373361 17.1268 0 16.6668 0H3.33334C2.87333 0 2.50001 0.373322 2.50001 0.833324C2.50001 1.29333 2.87333 1.66669 3.33334 1.66669Z" fill="#111111"/>
</svg>
