<svg width="20" height="20" viewBox="0 0 20 20" fill="none" xmlns="http://www.w3.org/2000/svg">
<path d="M5.20836 15.5003C4.55587 15.4991 3.92018 15.2933 3.39072 14.912C2.86126 14.5307 2.46467 13.993 2.25676 13.3745L2.2276 13.2787C2.13426 12.9865 2.08565 12.682 2.08343 12.3753V6.69382L0.0618189 13.442C-0.0619101 13.9222 0.00776562 14.4317 0.255859 14.861C0.503953 15.2904 0.910643 15.6052 1.38845 15.7378L14.274 19.1885C14.4348 19.2302 14.5956 19.2502 14.7539 19.2502C15.5839 19.2502 16.3422 18.6994 16.5547 17.8877L17.3056 15.5003H5.20836ZM7.49996 6.75049C8.41911 6.75049 9.16659 6.00301 9.16659 5.08386C9.16659 4.16472 8.41911 3.41724 7.49996 3.41724C6.58082 3.41724 5.83334 4.16472 5.83334 5.08386C5.83334 6.00301 6.58082 6.75049 7.49996 6.75049Z" fill="black"/>
<path d="M17.917 0.916992H5.41727C4.86495 0.917654 4.33544 1.13735 3.94489 1.5279C3.55435 1.91845 3.33465 2.44796 3.33398 3.00027V12.1667C3.33398 13.315 4.26896 14.25 5.41727 14.25H17.917C19.0653 14.25 20.0002 13.315 20.0002 12.1667V3.00027C20.0002 1.85197 19.0653 0.916992 17.917 0.916992ZM5.41727 2.58362H17.917C18.0275 2.58362 18.1334 2.62751 18.2116 2.70565C18.2897 2.78379 18.3336 2.88977 18.3336 3.00027V8.91596L15.7012 5.84437C15.562 5.68449 15.3903 5.55609 15.1977 5.46772C15.005 5.37935 14.7957 5.33305 14.5837 5.33188C14.371 5.33298 14.1611 5.38062 13.9688 5.47146C13.7765 5.5623 13.6064 5.69413 13.4704 5.8577L10.3755 9.57261L9.36717 8.5668C9.09297 8.29303 8.72133 8.13927 8.33386 8.13927C7.94639 8.13927 7.57475 8.29303 7.30055 8.5668L5.00061 10.8659V3.00027C5.00061 2.88977 5.04451 2.78379 5.12265 2.70565C5.20078 2.62751 5.30676 2.58362 5.41727 2.58362Z" fill="black"/>
</svg>
