<svg width="20" height="20" viewBox="0 0 20 20" fill="none" xmlns="http://www.w3.org/2000/svg">
<mask id="mask0_2081_1275" style="mask-type:luminance" maskUnits="userSpaceOnUse" x="0" y="0" width="20" height="20">
<path fill-rule="evenodd" clip-rule="evenodd" d="M0 0H20V20H0V0Z" fill="white"/>
</mask>
<g mask="url(#mask0_2081_1275)">
<path fill-rule="evenodd" clip-rule="evenodd" d="M9.375 5.00001C9.375 3.44689 9.92437 2.12064 11.0225 1.02251C11.1144 0.930638 11.2081 0.842513 11.3031 0.758138C10.8747 0.668744 10.4382 0.62413 10.0006 0.625013H9.99937C8.38687 0.625013 6.98313 1.16564 5.7875 2.24689C4.59188 3.32814 3.9125 4.67064 3.75062 6.27439L3.22062 11.5206C2.32375 11.9356 1.875 12.6788 1.875 13.7494V13.7506C1.875 15.4169 2.70813 16.25 4.37438 16.25H15.6256C17.2919 16.25 18.125 15.4169 18.125 13.7506V13.7494C18.125 12.6788 17.6763 11.9356 16.7794 11.5206L16.665 10.3894C16.1245 10.5491 15.5635 10.6285 15 10.625C13.4469 10.625 12.1206 10.0756 11.0225 8.97751C9.92437 7.87939 9.375 6.55314 9.375 5.00001ZM11.9062 1.90626C11.0519 2.76064 10.625 3.79189 10.625 5.00001C10.625 6.20814 11.0519 7.23939 11.9062 8.09376C12.7606 8.94814 13.7919 9.37501 15 9.37501C16.2081 9.37501 17.2394 8.94814 18.0938 8.09376C18.9481 7.23939 19.375 6.20814 19.375 5.00001C19.375 3.79189 18.9481 2.76064 18.0938 1.90626C17.2394 1.05189 16.2081 0.625013 15 0.625013C13.7919 0.625013 12.7606 1.05189 11.9062 1.90626ZM14.4125 4.46626L14.1919 4.24564C14.07 4.12376 13.9231 4.06251 13.75 4.06251C13.5769 4.06251 13.43 4.12376 13.3081 4.24564C13.2498 4.30345 13.2036 4.3723 13.1721 4.44816C13.1407 4.52403 13.1247 4.60539 13.125 4.68751C13.1247 4.76963 13.1407 4.85098 13.1722 4.92684C13.2036 5.0027 13.2498 5.07155 13.3081 5.12939L14.2456 6.06689C14.3675 6.18876 14.5144 6.25001 14.6875 6.25001C14.8606 6.25001 15.0075 6.18876 15.1294 6.06689L17.0044 4.19189C17.0627 4.13407 17.1089 4.06523 17.1404 3.98936C17.1718 3.9135 17.1878 3.83213 17.1875 3.75001C17.1878 3.6679 17.1718 3.58654 17.1403 3.51068C17.1089 3.43483 17.0627 3.36597 17.0044 3.30814C16.8825 3.18626 16.7356 3.12501 16.5625 3.12501C16.3894 3.12501 16.2425 3.18626 16.1206 3.30814L15.2369 4.19189L14.6875 4.74126L14.4125 4.46626ZM7.34875 18.2769C7.11452 18.0447 6.91079 17.7837 6.7425 17.5H13.2588C13.0963 17.775 12.8944 18.0344 12.6525 18.2769C11.9187 19.0088 11.0356 19.375 10 19.375C8.96438 19.375 8.08063 19.0088 7.34812 18.2769H7.34875Z" fill="black"/>
</g>
</svg>
