<svg width="26" height="26" viewBox="0 0 26 26" fill="none" xmlns="http://www.w3.org/2000/svg">
<path d="M22.8707 5.35805L16.1507 21.936C16.0288 22.2575 15.8122 22.5345 15.5295 22.7302C15.2468 22.9259 14.9113 23.0312 14.5674 23.0321C14.2212 23.024 13.8855 22.9107 13.6053 22.7072C13.325 22.5038 13.1133 22.2197 12.9985 21.893L10.8492 16.1616L15.8641 11.1467C15.9981 11.008 16.0715 10.8218 16.0681 10.629C16.0647 10.4362 15.9849 10.2526 15.8462 10.1186C15.7075 9.98469 15.5213 9.91132 15.3285 9.91468C15.1357 9.91804 14.9521 9.99785 14.8182 10.1366L9.80323 15.1515L4.07188 13.0022C3.74971 12.8809 3.47158 12.6654 3.27378 12.3836C3.07597 12.1019 2.96769 11.7671 2.96305 11.4229C2.95841 11.0786 3.05763 10.741 3.24776 10.4541C3.4379 10.1671 3.71012 9.94409 4.0289 9.81417L20.6426 3.12998C20.9542 3.00081 21.2972 2.96696 21.628 3.03271C21.9589 3.09847 22.2628 3.26089 22.5013 3.49941C22.7398 3.73793 22.9022 4.04183 22.968 4.37268C23.0337 4.70353 22.9999 5.04644 22.8707 5.35805Z" fill="#111111"/>
</svg>
