<svg width="26" height="26" viewBox="0 0 26 26" fill="none" xmlns="http://www.w3.org/2000/svg">
<path d="M13 3H12.6595V3.00862C7.30286 3.18906 3 7.59997 3 13C3 18.514 7.48603 23 13 23C15.2424 23 17.4232 22.2403 19.1806 20.8576L19.1853 20.8633L19.4454 20.6436C21.7045 18.7364 23 15.9506 23 13C23 7.48603 18.514 3 13 3ZM17.2488 18.0391L16.9887 18.2586L18.7416 20.3367C17.1027 21.6199 15.0815 22.3176 13 22.3189C7.86143 22.3191 3.6809 18.1386 3.6809 13C3.6809 7.9756 7.67827 3.86952 12.6595 3.68953V6.40452H13C16.6367 6.40452 19.5955 9.36328 19.5955 13C19.5955 14.9426 18.74 16.7792 17.2488 18.0391Z" fill="black"/>
</svg>
