<svg width="24" height="18" viewBox="0 0 24 18" fill="none" xmlns="http://www.w3.org/2000/svg">
<path d="M8.95864 4.19946C8.17878 4.19946 7.54688 4.83137 7.54688 5.61123C7.54688 6.3911 8.17878 7.023 8.95864 7.023C9.73851 7.023 10.3704 6.3911 10.3704 5.61123C10.3704 4.83137 9.73851 4.19946 8.95864 4.19946Z" fill="#111111"/>
<path d="M21.8824 3.367H20.4072C20.093 1.73106 18.6634 0.547351 16.998 0.543457H7.00211C5.33613 0.547351 3.90712 1.73106 3.59284 3.367H2.11765C0.947854 3.367 0 4.31485 0 5.48465V12.5435C0 13.7133 0.947854 14.6611 2.11765 14.6611H3.52942V14.9081C3.52553 16.3271 4.67252 17.4808 6.09152 17.4847H17.8941C19.3114 17.4847 20.4629 16.3399 20.4707 14.922V14.6606H21.8824C23.0522 14.6606 24.0001 13.7127 24.0001 12.5429V5.48409C24.0001 4.31429 23.0522 3.36644 21.8824 3.36644V3.367ZM1.41177 12.5435V5.48465C1.41177 5.09472 1.72772 4.77876 2.11765 4.77876H3.52942V13.2494H2.11765C1.72772 13.2494 1.41177 12.9334 1.41177 12.5435ZM17.9225 7.67962C17.0625 6.83968 15.1557 6.79629 14.0682 7.96887L11.4566 10.5382C11.3871 10.596 11.3 10.6283 11.2096 10.63C11.1134 10.6255 11.0205 10.5938 10.9415 10.5382L10.2428 9.86069C9.51136 9.13756 8.33433 9.13756 7.60286 9.86069L4.94175 12.5429V4.0167C4.94175 2.87805 5.86457 1.95523 7.00322 1.95523H16.9985C18.1372 1.95523 19.06 2.87805 19.06 4.0167V8.8166L17.9236 7.68018L17.9225 7.67962ZM22.5883 12.5435C22.5883 12.9334 22.2724 13.2494 21.8824 13.2494H20.4707V4.77876H21.8824C22.2724 4.77876 22.5883 5.09472 22.5883 5.48465V12.5435Z" fill="#111111"/>
</svg>
