<svg width="22" height="12" viewBox="0 0 22 12" fill="none" xmlns="http://www.w3.org/2000/svg">
<path d="M10.7292 6.00033C10.7292 8.83758 8.42058 11.1462 5.58333 11.1462C2.74608 11.1462 0.4375 8.83758 0.4375 6.00033C0.4375 3.16308 2.74608 0.854492 5.58333 0.854492C8.42058 0.854492 10.7292 3.16308 10.7292 6.00033ZM11 0.854492C10.6967 0.854492 10.3825 0.886992 10.0792 0.941159C11.4767 2.17616 12.3542 3.98533 12.3542 6.00033C12.3542 8.01533 11.4767 9.82449 10.0792 11.0595C10.3825 11.1137 10.6967 11.1462 11 11.1462C13.8383 11.1462 16.1458 8.83866 16.1458 6.00033C16.1458 3.16199 13.8383 0.854492 11 0.854492ZM16.9583 1.14699C16.59 1.14699 16.2217 1.19033 15.8642 1.29866C17.045 2.51199 17.7708 4.18033 17.7708 6.00033C17.7708 7.82033 17.045 9.48866 15.8642 10.702C16.2217 10.8103 16.59 10.8537 16.9583 10.8537C19.4933 10.8537 21.5625 8.67616 21.5625 6.00033C21.5625 3.32449 19.4933 1.14699 16.9583 1.14699Z" fill="black"/>
</svg>
