<svg width="67" height="78" viewBox="0 0 67 78" fill="none" xmlns="http://www.w3.org/2000/svg">
<path d="M47.8657 16.6017C41.7439 9.55165 34.4146 3.88928 26.2614 0L22.2009 7.82856L22.1951 7.82571L11.8303 27.301H26.6029L31.6141 17.4833C34.021 19.4707 36.301 21.6941 38.4255 24.1408C43.5362 30.0265 47.6364 37.0695 50.4482 44.8871C52.3116 50.068 53.5787 55.5079 54.222 61.0641L29.6358 51.9349L0 67.891L4.16345 78L29.6358 64.4576L67 78V69.6173C67 59.8334 65.3275 50.1271 62.061 41.0452C58.7946 31.9637 53.986 23.65 47.8657 16.6017Z" fill="#111111"/>
</svg>
